<mxfile host="app.diagrams.net" modified="2023-06-04T00:02:13.437Z" agent="Mozilla/5.0 (Windows NT 10.0; Win64; x64) AppleWebKit/537.36 (KHTML, like Gecko) Chrome/113.0.0.0 Safari/537.36" version="21.3.7" etag="fD9xPXo3QVdHz3yyoXrT" type="github">
  <diagram name="PÃ¡gina-1" id="Af2hIUANL4dXm3gtRa4E">
    <mxGraphModel>
      <root>
        <mxCell id="0" />
        <mxCell id="1" parent="0" />
      </root>
    </mxGraphModel>
  </diagram>
</mxfile>
